<svg width="22" height="22" viewBox="0 0 22 22" fill="none" xmlns="http://www.w3.org/2000/svg">
<path d="M2.75 5.50065H4.58333M4.58333 5.50065H19.25M4.58333 5.50065V18.334C4.58333 18.8202 4.77649 19.2865 5.1203 19.6303C5.46412 19.9742 5.93044 20.1673 6.41667 20.1673H15.5833C16.0696 20.1673 16.5359 19.9742 16.8797 19.6303C17.2235 19.2865 17.4167 18.8202 17.4167 18.334V5.50065H4.58333ZM7.33333 5.50065V3.66732C7.33333 3.18109 7.52649 2.71477 7.8703 2.37096C8.21412 2.02714 8.68044 1.83398 9.16667 1.83398H12.8333C13.3196 1.83398 13.7859 2.02714 14.1297 2.37096C14.4735 2.71477 14.6667 3.18109 14.6667 3.66732V5.50065M9.16667 10.084V15.584M12.8333 10.084V15.584" stroke="#3D8FB3" stroke-width="1.5" stroke-linecap="round" stroke-linejoin="round"/>
</svg>
